<?xml version="1.0" encoding="UTF-8"?>
<svg id="Layer_1" data-name="Layer 1" xmlns="http://www.w3.org/2000/svg" viewBox="0 0 1252.15 1002.85">
  <defs>
    <style>
      .cls-1 {
        fill: #fff;
      }

      .cls-2 {
        fill: #ffc750;
      }
    </style>
  </defs>
  <path class="cls-1" d="M0,.82v527.68s90.74-123.29,214.25-123.29,217.97,106.19,217.97,106.19l374.38,380.07c55.65,46.3,111.39,111.39,278.47,111.39h167.08l-1.94-259.82L602.42,109.31S516.72-1.65,310.03.82C103.34,3.28,0,.82,0,.82Z"/>
  <polygon class="cls-1" points="768.76 0 1250.21 473.48 1250.21 0 768.76 0"/>
  <path class="cls-2" d="M228.61,567.9c-92.05,0-166.67,66.57-166.67,148.69,0,14.11,2.25,27.75,6.37,40.68,2.53,7.96,5.31,15.87,9.68,23.02,34.18,55.82,150.61,216.06,150.61,216.06,0,0,116.44-160.24,150.62-216.06,4.38-7.15,7.15-15.06,9.68-23.02,4.11-12.94,6.37-26.57,6.37-40.68,0-82.12-74.62-148.69-166.67-148.69Z"/>
</svg>