<?xml version="1.0" encoding="UTF-8"?>
<svg id="Layer_1" data-name="Layer 1" xmlns="http://www.w3.org/2000/svg" viewBox="0 0 1273.69 247.09">
  <defs>
    <style>
      .cls-1 {
        font-size: 176.77px;
      }

      .cls-1, .cls-2 {
        font-family: Squaresharps, Squaresharps;
      }

      .cls-1, .cls-3, .cls-4 {
        fill: #fff;
      }

      .cls-2 {
        font-size: 88.38px;
      }

      .cls-2, .cls-5 {
        fill: #ffc750;
      }

      .cls-6 {
        fill: #010101;
        stroke: #ffc750;
      }

      .cls-6, .cls-4 {
        stroke-miterlimit: 10;
      }

      .cls-4 {
        stroke: #fff;
      }
    </style>
  </defs>
  <path class="cls-3" d="M0,19.4v119.63s20.57-27.95,48.57-27.95,49.42,24.07,49.42,24.07l84.88,86.16c12.62,10.5,25.25,25.25,63.13,25.25h37.88l-.44-58.9L136.58,44s-19.43-25.16-66.29-24.6S0,19.4,0,19.4Z"/>
  <polygon class="cls-3" points="174.29 19.22 283.44 126.56 283.44 19.22 174.29 19.22"/>
  <path class="cls-5" d="M51.83,147.96c-20.87,0-37.79,15.09-37.79,33.71,0,3.2.51,6.29,1.44,9.22.57,1.81,1.2,3.6,2.2,5.22,7.75,12.66,34.15,48.98,34.15,48.98,0,0,26.4-36.33,34.15-48.98.99-1.62,1.62-3.41,2.2-5.22.93-2.93,1.44-6.02,1.44-9.22,0-18.62-16.92-33.71-37.79-33.71Z"/>
  <text/>
  <text class="cls-1" transform="translate(378.58 138.1) scale(.93 1)"><tspan x="0" y="0">NETWORQ</tspan></text>
  <text class="cls-2" transform="translate(581.2 211.65) scale(.93 1)"><tspan x="0" y="0">GLOBAL</tspan></text>
  <line class="cls-4" x1="340.73" y1="19.41" x2="340.73" y2="247.09"/>
  <line class="cls-6" x1="397.11" y1="189.77" x2="568.13" y2="191.18"/>
  <line class="cls-6" x1="894.41" y1="189.77" x2="1067.45" y2="191.18"/>
</svg>